Coordinates
version=1
nRows=17
nColumns=24
inDegrees=yes

Units are S.I. units (second, meters, Newtons, ...)
Angles are in degrees.

endheader
time	pelvis_tilt	pelvis_list	pelvis_rotation	pelvis_tx	pelvis_ty	pelvis_tz	hip_flexion_r	hip_adduction_r	hip_rotation_r	knee_angle_r	ankle_angle_r	subtalar_angle_r	mtp_angle_r	hip_flexion_l	hip_adduction_l	hip_rotation_l	knee_angle_l	ankle_angle_l	subtalar_angle_l	mtp_angle_l	lumbar_extension	lumbar_bending	lumbar_rotation
      1.75700000	      0.34747555	     10.66363031	     -3.99018646	      1.39359461	      1.00843839	      0.28761617	     17.01360915	    -13.64535200	      2.96384444	    -70.22588193	      0.89056640	     -0.59522990	      6.08818075	      6.30846980	     16.09950189	      5.14576801	    -10.78813702	      2.75083996	    -16.23614207	     -4.69301138	    -11.32025030	     -7.60265198	     -1.08466465
      1.76116667	      0.41479679	     10.51906650	     -3.78945037	      1.39811050	      1.00921086	      0.28708991	     17.41919769	    -13.44925103	      2.87211680	    -69.73576816	      1.69764053	     -0.39230390	      5.95510273	      5.62787969	     16.00253901	      5.57847447	    -10.25119843	      2.64236094	    -16.39504638	     -4.68042911	    -11.41838845	     -7.37089377	     -1.52951799
      1.76533333	      0.46560105	     10.35852652	     -3.59048375	      1.40257395	      1.00991263	      0.28658514	     17.83827577	    -13.22688706	      2.78923255	    -69.20481235	      2.48044880	     -0.23227164	      5.80836774	      5.00747726	     15.87919940	      5.95502977	     -9.79551126	      2.60154092	    -16.48326889	     -4.66610785	    -11.52585784	     -7.12557950	     -1.80052634
      1.76950000	      0.51786746	     10.18454211	     -3.38795939	      1.40698906	      1.01058778	      0.28610811	     18.23844774	    -12.98593917	      2.70282077	    -68.61843425	      3.21084906	     -0.10981890	      5.69452857	      4.39628876	     15.73198328	      6.29870348	     -9.35762299	      2.60566314	    -16.50914193	     -4.65649706	    -11.63148440	     -6.88626281	     -2.06790892
      1.77366667	      0.55106340	     10.02815233	     -3.19319988	      1.41145459	      1.01115910	      0.28562518	     18.65800817	    -12.77052706	      2.61830267	    -68.00699381	      3.88289885	     -0.04056153	      5.58140253	      3.80570899	     15.59988337	      6.65029957	     -8.91819509	      2.60107806	    -16.55468220	     -4.64684811	    -11.71369365	     -6.63572059	     -2.33319266
      1.77783333	      0.57813772	      9.87933868	     -3.00707246	      1.41586463	      1.01167648	      0.28518089	     19.08214420	    -12.55651189	      2.54837572	    -67.35550459	      4.52160089	     -0.02346817	      5.45945956	      3.23410254	     15.46872274	      6.99417106	     -8.48664934	      2.56931599	    -16.62328108	     -4.63727440	    -11.79303388	     -6.41307255	     -2.59474963
      1.78200000	      0.60276275	      9.73264409	     -2.80455576	      1.42027547	      1.01214925	      0.28472725	     19.49183341	    -12.35493721	      2.45299220	    -66.66038423	      5.13669403	     -0.05467256	      5.32704056	      2.66820718	     15.33497596	      7.33420898	     -8.06164459	      2.53836696	    -16.68887583	     -4.62832940	    -11.87035818	     -6.19353610	     -2.85398384
      1.78616667	      0.64841476	      9.59847991	     -2.59571829	      1.42467660	      1.01260245	      0.28428330	     19.86510660	    -12.17382800	      2.34560256	    -65.92634841	      5.70677536	     -0.16227003	      5.14619977	      2.09115163	     15.21178897	      7.67528614	     -7.65835848	      2.47027605	    -16.77619218	     -4.61525498	    -11.96637240	     -6.00052556	     -3.13676136
      1.79033333	      0.66410871	      9.45378276	     -2.42017393	      1.42908176	      1.01295729	      0.28388742	     20.27011111	    -11.96537700	      2.28090960	    -65.15725707	      6.21298138	     -0.26952116	      5.01215049	      1.55397711	     15.06981923	      7.99032747	     -7.26134392	      2.48862784	    -16.82048883	     -4.60113651	    -12.03636448	     -5.77990812	     -3.32953240
      1.79450000	      0.69628704	      9.34329739	     -2.21644033	      1.43348368	      1.01328878	      0.28346984	     20.64174093	    -11.81048660	      2.18656099	    -64.35798448	      6.73595193	     -0.45926160	      4.76106111	      0.99558804	     14.96181188	      8.33875810	     -6.84884805	      2.37881476	    -16.95874500	     -4.57473516	    -12.11999846	     -5.61217706	     -3.61703961
      1.79866667	      0.69423974	      9.22527172	     -2.01447056	      1.43786991	      1.01352215	      0.28306664	     21.04448376	    -11.64517322	      2.09532647	    -63.52191178	      7.17517413	     -0.68013632	      4.51854268	      0.49513460	     14.84058428	      8.66676550	     -6.48714601	      2.35931791	    -17.03390617	     -4.54530622	    -12.16360665	     -5.42836458	     -3.85937902
      1.80283333	      0.71377758	      9.09889143	     -1.84278867	      1.44228084	      1.01375364	      0.28271779	     21.40602665	    -11.46280430	      2.02923337	    -62.63593102	      7.55131542	     -0.92872941	      4.36737807	     -0.02723402	     14.70401227	      8.95557579	     -6.11404690	      2.39206846	    -17.05335824	     -4.52567064	    -12.22887608	     -5.24356603	     -4.01383314
      1.80700000	      0.72711660	      9.02148305	     -1.64010553	      1.44666432	      1.01390749	      0.28234508	     21.77227292	    -11.34796818	      1.94415236	    -61.74184103	      7.96466344	     -1.22356360	      4.09031767	     -0.55034907	     14.61705235	      9.31561162	     -5.71805377	      2.26619131	    -17.22671426	     -4.48910375	    -12.29234530	     -5.10715954	     -4.32128164
      1.81116667	      0.74436877	      8.90138970	     -1.46259881	      1.45107487	      1.01405695	      0.28201743	     22.10915102	    -11.17689861	      1.87268962	    -60.78115027	      8.25400159	     -1.56539946	      3.93343773	     -1.05655731	     14.47910901	      9.59539120	     -5.37437236	      2.31784395	    -17.24448050	     -4.46302630	    -12.34884648	     -4.93440874	     -4.46668217
      1.81533333	      0.71383783	      8.81220771	     -1.25088877	      1.45544653	      1.01408551	      0.28167561	     22.48837459	    -11.04739560	      1.79049617	    -59.80306037	      8.58723000	     -1.92725439	      3.81743884	     -1.48373520	     14.36970882	      9.88383417	     -5.08556853	      2.32017915	    -17.26653498	     -4.44259392	    -12.36682736	     -4.80401084	     -4.63792419
      1.81950000	      0.73407072	      8.77272973	     -1.09044344	      1.45988900	      1.01409729	      0.28136715	     22.82518309	    -10.97315589	      1.74306850	    -58.82125664	      8.85455384	     -2.30613333	      3.43755380	     -2.02812073	     14.31355214	     10.27629322	     -4.65215349	      2.15379304	    -17.56560600	     -4.38190173	    -12.42156597	     -4.70240175	     -4.96492087
      1.82366667	      0.72275055	      8.68501449	     -0.90099708	      1.46427001	      1.01408209	      0.28106969	     23.15434924	    -10.84431741	      1.67724304	    -57.76826004	      9.06516016	     -2.73775641	      3.32790147	     -2.46188407	     14.19880698	     10.53362569	     -4.38279865	      2.23483676	    -17.52509772	     -4.35963791	    -12.46213914	     -4.57702875	     -5.06018425
